<svg width="104" height="61" viewBox="0 0 104 61" fill="none" xmlns="http://www.w3.org/2000/svg">
<path fill-rule="evenodd" clip-rule="evenodd" d="M36.8927 0.0640239C30.8951 0.978888 26.4699 3.14144 22.5151 7.0905C18.2519 11.3477 15.9214 16.4397 15.4022 22.6321L15.3828 22.8641C15.3046 23.7965 14.6426 24.5763 13.7353 24.8047V24.8047C12.0548 25.2278 9.37923 26.4377 7.94529 27.4229C6.25105 28.5868 4.20955 30.6942 2.9999 32.5279C-1.67609 39.6152 -0.82078 48.6469 5.11199 54.8347C7.42652 57.2487 10.5685 59.0766 13.9375 59.9694V59.9694C15.0788 60.2719 16.2544 60.425 17.4351 60.425H51.758H86.081C87.2616 60.425 88.4373 60.2719 89.5786 59.9694V59.9694C94.0499 58.7845 97.9345 56.0434 100.485 52.2735C103.691 47.5366 104.391 41.2797 102.316 35.9073C101.127 32.8293 98.3434 29.3277 95.5708 27.4229C94.1186 26.4252 91.4556 25.2278 89.6961 24.7813C88.8153 24.5577 88.0645 24.3449 88.0279 24.3085C87.9915 24.272 87.7777 23.5223 87.5532 22.6428C85.9502 16.3619 80.9355 11.3486 74.511 9.60385C73.1974 9.24719 72.3413 9.16459 69.9604 9.16459C66.5606 9.16459 65.0027 9.49803 62.1352 10.84C61.1757 11.2888 60.3769 11.6325 60.3597 11.6038C60.3425 11.5751 59.8878 10.925 59.3494 10.1594C55.8611 5.19857 50.5411 1.71966 44.4771 0.433603C42.9936 0.118955 38.0969 -0.119555 36.8927 0.0640239Z" fill="white"/>
<path d="M36.26 46.24C35.1533 46.24 34.08 46.0933 33.04 45.8C32.0133 45.4933 31.1867 45.1 30.56 44.62L31.66 42.18C32.26 42.62 32.9733 42.9733 33.8 43.24C34.6267 43.5067 35.4533 43.64 36.28 43.64C37.2 43.64 37.88 43.5067 38.32 43.24C38.76 42.96 38.98 42.5933 38.98 42.14C38.98 41.8067 38.8467 41.5333 38.58 41.32C38.3267 41.0933 37.9933 40.9133 37.58 40.78C37.18 40.6467 36.6333 40.5 35.94 40.34C34.8733 40.0867 34 39.8333 33.32 39.58C32.64 39.3267 32.0533 38.92 31.56 38.36C31.08 37.8 30.84 37.0533 30.84 36.12C30.84 35.3067 31.06 34.5733 31.5 33.92C31.94 33.2533 32.6 32.7267 33.48 32.34C34.3733 31.9533 35.46 31.76 36.74 31.76C37.6333 31.76 38.5067 31.8667 39.36 32.08C40.2133 32.2933 40.96 32.6 41.6 33L40.6 35.46C39.3067 34.7267 38.0133 34.36 36.72 34.36C35.8133 34.36 35.14 34.5067 34.7 34.8C34.2733 35.0933 34.06 35.48 34.06 35.96C34.06 36.44 34.3067 36.8 34.8 37.04C35.3067 37.2667 36.0733 37.4933 37.1 37.72C38.1667 37.9733 39.04 38.2267 39.72 38.48C40.4 38.7333 40.98 39.1333 41.46 39.68C41.9533 40.2267 42.2 40.9667 42.2 41.9C42.2 42.7 41.9733 43.4333 41.52 44.1C41.08 44.7533 40.4133 45.2733 39.52 45.66C38.6267 46.0467 37.54 46.24 36.26 46.24ZM51.1139 46.24C49.6872 46.24 48.3939 45.9333 47.2339 45.32C46.0872 44.6933 45.1806 43.8333 44.5139 42.74C43.8606 41.6333 43.5339 40.3867 43.5339 39C43.5339 37.6133 43.8606 36.3733 44.5139 35.28C45.1806 34.1733 46.0872 33.3133 47.2339 32.7C48.3939 32.0733 49.6939 31.76 51.1339 31.76C52.3472 31.76 53.4406 31.9733 54.4139 32.4C55.4006 32.8267 56.2272 33.44 56.8939 34.24L54.8139 36.16C53.8672 35.0667 52.6939 34.52 51.2939 34.52C50.4272 34.52 49.6539 34.7133 48.9739 35.1C48.2939 35.4733 47.7606 36 47.3739 36.68C47.0006 37.36 46.8139 38.1333 46.8139 39C46.8139 39.8667 47.0006 40.64 47.3739 41.32C47.7606 42 48.2939 42.5333 48.9739 42.92C49.6539 43.2933 50.4272 43.48 51.2939 43.48C52.6939 43.48 53.8672 42.9267 54.8139 41.82L56.8939 43.74C56.2272 44.5533 55.4006 45.1733 54.4139 45.6C53.4272 46.0267 52.3272 46.24 51.1139 46.24ZM68.2489 38.78H71.2089V44.46C70.4489 45.0333 69.5689 45.4733 68.5689 45.78C67.5689 46.0867 66.5622 46.24 65.5489 46.24C64.0956 46.24 62.7889 45.9333 61.6289 45.32C60.4689 44.6933 59.5556 43.8333 58.8889 42.74C58.2356 41.6333 57.9089 40.3867 57.9089 39C57.9089 37.6133 58.2356 36.3733 58.8889 35.28C59.5556 34.1733 60.4756 33.3133 61.6489 32.7C62.8222 32.0733 64.1422 31.76 65.6089 31.76C66.8356 31.76 67.9489 31.9667 68.9489 32.38C69.9489 32.7933 70.7889 33.3933 71.4689 34.18L69.3889 36.1C68.3889 35.0467 67.1822 34.52 65.7689 34.52C64.8756 34.52 64.0822 34.7067 63.3889 35.08C62.6956 35.4533 62.1556 35.98 61.7689 36.66C61.3822 37.34 61.1889 38.12 61.1889 39C61.1889 39.8667 61.3822 40.64 61.7689 41.32C62.1556 42 62.6889 42.5333 63.3689 42.92C64.0622 43.2933 64.8489 43.48 65.7289 43.48C66.6622 43.48 67.5022 43.28 68.2489 42.88V38.78Z" fill="#67D8FB"/>
</svg>
