<svg width="724" height="679" viewBox="0 0 724 679" fill="none" xmlns="http://www.w3.org/2000/svg">
<path d="M571.547 7.94169C578.63 -0.534712 591.282 -1.70215 599.382 5.80738C636.336 40.0667 666.312 81.2433 687.571 127.072C711.64 178.956 723.94 235.52 723.592 292.713C723.244 349.907 710.256 406.317 685.558 457.905C660.86 509.492 625.063 554.981 580.729 591.117C536.395 627.252 484.62 653.139 429.112 666.925C373.603 680.711 315.733 682.055 259.645 670.861C203.556 659.666 150.635 636.211 104.672 602.173C64.0725 572.107 29.7878 534.443 3.68558 491.338C-2.03593 481.89 1.65924 469.733 11.3898 464.506L332.182 292.182C334.431 290.973 336.428 289.346 338.065 287.386L571.547 7.94169Z" fill="#EFFBFF"/>
</svg>
